<svg width="536" height="172" viewBox="0 0 536 172" fill="none" xmlns="http://www.w3.org/2000/svg">
<path d="M63.8194 109.206H33.838V40.607H55.0491V54.9064H64.8674V28.7195H23.3628V120.774H63.8194V109.206Z" fill="#C5F4FF"/>
<path d="M146.302 120.774H156.255V40.447H171.705V28.7195H130.07V40.447H146.302V120.774Z" fill="#C5F4FF"/>
<path d="M217.642 120.774L231.126 28.7195H217.903L208.606 107.6H204.811L195.383 28.7195H182.817L196.171 120.774H217.642Z" fill="#C5F4FF"/>
<path d="M87.522 79.7389H91.7091L110.037 120.865H123.13L104.932 79.7389H116.455V28.811H77.5684V120.865H87.6474L87.517 79.7389H87.522ZM87.522 40.2186H105.98V68.1714H87.522V40.2186Z" fill="#C5F4FF"/>
<path d="M284.991 121.395H326.717V108.8H294.995V71.9688H326.717V60.3397H294.995V40.3119H326.717V28.6829L284.991 28.8428V121.395Z" fill="#C5F4FF"/>
<path d="M340.286 71.8083L371.481 93.9342V109.28H350.29V94.9064H340.286V121.395L381.75 121.235V82.1452L350.816 60.1731V40.7974H372.143V55.1707H382.011V28.8423H340.286V71.8083Z" fill="#C5F4FF"/>
<path d="M404.105 40.7974H435.079L435.299 28.8423H393.574V121.395H434.251V109.766H404.105V40.7974Z" fill="#C5F4FF"/>
<path d="M459.494 55.5772L470.516 69.1014H417.147V81.4073H471.478L459.494 96.1189L466.584 104.819L488.066 78.46V73.2361L466.584 46.877L459.494 55.5772Z" fill="#C5F4FF"/>
<path d="M514.944 0.852539H262.898V13.2692L252.438 0.864845H0.391357V149.649L16.6933 169.326L273.102 171.147L273.087 161.74L279.2 169.314L535.609 171.135L535.408 25.3535L514.944 0.852539ZM514.944 137.331V17.8777L525.384 30.5097L525.55 150.701L514.944 137.688V137.331ZM272.927 45.4244V13.1584H504.915V137.331H273.052L272.927 45.4306V45.4244ZM262.898 45.529V149.637H263.038V150.714L252.433 137.7V17.89L262.873 30.522L262.893 45.5229L262.898 45.529ZM242.409 13.1707V137.343H10.4203V13.1707H242.409ZM14.9282 149.649H247.99L255.381 158.719L20.9005 157.051L14.9282 149.649ZM277.43 149.637H510.491L517.882 158.706L283.402 157.039L277.43 149.637Z" fill="#C5F4FF"/>
</svg>
