<svg width="65" height="68" viewBox="0 0 65 68" fill="none" xmlns="http://www.w3.org/2000/svg">
<g clip-path="url(#clip0_176_488)">
<rect width="65" height="68" fill="#FE604B"/>
<path d="M5.47534 25.156H15.1183V22.7292H7.97212V8.33765H13.0278V11.3376H15.368V5.84375H5.47534V25.156Z" fill="#C5F4FF"/>
<path d="M30.9092 8.30409H34.7781V25.156H37.1505V8.30409H40.833V5.84375H30.9092V8.30409Z" fill="#C5F4FF"/>
<path d="M49.6284 22.3923H48.7236L46.4766 5.84375H43.4814L46.6643 25.156H51.7821L54.996 5.84375H51.8443L49.6284 22.3923Z" fill="#C5F4FF"/>
<path d="M27.6653 16.5458V5.86279H18.3977V25.175H20.8001L20.769 16.5471H21.767L26.1355 25.175H29.2561L24.9187 16.5471H27.6653V16.5458ZM20.7678 14.1203V8.256H25.1673V14.1203H20.7678Z" fill="#C5F4FF"/>
<path d="M15.2126 55.3046H7.65055V47.5776H15.2126V45.1379H7.65055V40.9363H15.2126V38.4966L5.26611 38.5301V57.9469H15.2126V55.3046Z" fill="#C5F4FF"/>
<path d="M28.3287 49.7128L20.9555 45.1032V41.0384H26.0387V44.0538H28.392V38.5303H18.4456V47.5442L25.8809 52.186V55.4054H20.83V52.39H18.4456V57.947L28.3287 57.9135V49.7128Z" fill="#C5F4FF"/>
<path d="M40.8425 55.5074H33.6569V41.0384H41.0397L41.0923 38.5303H31.147V57.947H40.8425V55.5074Z" fill="#C5F4FF"/>
<path d="M62.9932 35.711L65.0012 35.7239L64.9534 5.14011L60.0758 0H0V31.2137L1.42468 32.6582H0V63.8719L3.88561 68H65.0012L64.9534 37.7996L62.9932 35.7123V35.711ZM60.0758 61.2902V36.2312L62.5642 38.8813L62.6036 64.0965L60.0758 61.3664V61.2915V61.2902ZM62.5642 6.22183L62.6036 31.437L60.0758 28.7069V3.57175L62.5642 6.22183ZM59.0156 31.2137L60.7773 33.1164H60.5538L60.1582 32.6943L60.0746 32.786V32.6595H4.78918L3.4649 31.215H59.0156V31.2137ZM2.39041 2.58167H57.6853V28.6321H2.39041V2.58167ZM3.88561 35.3418L57.6853 35.6787V61.2902H2.39041V35.2399H3.79238L3.88561 35.3418ZM3.4637 63.8719H59.0144L60.7761 65.7746L4.88719 65.4248L3.4637 63.8719Z" fill="#C5F4FF"/>
<path d="M36.7656 46.976V49.5577H49.7157L46.8591 52.644L48.5491 54.4693L53.6694 48.9393V47.8421L48.5491 42.3135L46.8591 44.1387L49.4862 46.976H36.7656Z" fill="#C5F4FF"/>
</g>
<defs>
<clipPath id="clip0_176_488">
<rect width="65" height="68" fill="white"/>
</clipPath>
</defs>
</svg>
